<?xml version="1.0" encoding="utf-8"?>
<!-- Generator: Adobe Illustrator 21.0.0, SVG Export Plug-In . SVG Version: 6.00 Build 0)  -->
<svg version="1.1" id="Calque_1" xmlns="http://www.w3.org/2000/svg" xmlns:xlink="http://www.w3.org/1999/xlink" x="0px" y="0px"
	 viewBox="0 0 1360 485.1" style="enable-background:new 0 0 1360 485.1;" xml:space="preserve">
<g>
	<path d="M1316.5,242.4c24.2-1.4,43.4-21.4,43.4-46V46.1c0-25.5-20.6-46.1-46.1-46.1h0v242.5h0c0,0,0.1,0,0.1,0v80.8V485h46.1V288.4
		C1360,263.8,1340.8,243.8,1316.5,242.4z"/>
	<rect x="56.1" y="323.3" width="46.1" height="161.7"/>
	<polygon points="0,121.5 0,161.7 0,161.7 0,323.3 0,323.3 0,383.5 0,485 46.1,485 46.1,383.5 46.1,323.3 46.1,323.3 46.1,161.7 
		46.1,161.7 46.1,121.5 46.1,0 0,0 	"/>
	<polygon points="112.2,161.7 112.2,161.7 112.2,161.7 112.2,161.7 112.2,323.3 112.2,323.3 112.2,323.3 112.2,323.3 112.2,485 
		158.3,485 158.3,323.3 158.2,323.3 158.2,323.3 158.3,323.3 158.3,161.7 158.2,161.7 158.2,161.7 158.3,161.7 158.3,0 112.2,0 	"/>
	<rect x="168.3" width="46.1" height="81"/>
	<polygon points="224.3,161.7 224.3,161.7 224.3,161.7 224.3,161.7 224.3,323.3 224.3,323.3 224.3,323.3 224.3,323.3 224.3,485 
		270.4,485 270.4,323.3 270.4,323.3 270.4,323.3 270.4,323.3 270.4,161.7 270.4,161.7 270.4,161.7 270.4,161.7 270.4,0 224.3,0 	"/>
	<polygon points="336.5,161.7 336.5,161.7 336.5,161.7 336.5,161.7 336.5,323.3 336.5,323.3 336.5,323.3 336.5,323.3 336.5,485 
		382.6,485 382.6,323.3 382.6,323.3 382.6,323.3 382.6,323.3 382.6,161.7 382.6,161.7 382.6,161.7 382.6,161.7 382.6,0 336.5,0 	"/>
	<polygon points="432.6,161.7 432.6,161.7 432.6,161.7 432.6,161.7 432.6,323.3 432.6,323.3 432.6,323.3 432.6,323.3 432.6,485 
		478.7,485 478.7,323.3 478.7,323.3 478.7,323.3 478.7,323.3 478.7,161.7 478.7,161.7 478.7,161.7 478.7,161.7 478.7,0 432.6,0 	"/>
	<rect x="488.7" width="46.1" height="161.7"/>
	<path d="M544.8,46.1v115.6h0v0h0v161.7h0v0h0v115.6c0,25.5,20.6,46.1,46.1,46.1V323.3h0v0h0V161.7h0v0h0V0
		C565.4,0,544.8,20.6,544.8,46.1z"/>
	<rect x="600.8" width="46.1" height="161.7"/>
	<polygon points="769.1,161.7 769.1,161.7 769.1,161.7 769.1,161.7 769.1,323.3 769.1,323.3 769.1,323.3 769.1,323.3 769.1,485 
		815.2,485 815.2,323.3 815.2,323.3 815.2,323.3 815.2,323.3 815.2,161.7 815.2,161.7 815.2,161.7 815.2,161.7 815.2,0 769.1,0 	"/>
	<polygon points="825.2,161.7 825.2,161.7 825.2,161.7 825.2,161.7 825.2,323.3 825.2,323.3 825.2,323.3 825.2,323.3 825.2,485 
		871.3,485 871.3,323.3 871.2,323.3 871.2,323.3 871.3,323.3 871.3,161.7 871.2,161.7 871.2,161.7 871.3,161.7 871.3,0 825.2,0 	"/>
	<rect x="881.3" width="46.1" height="161.7"/>
	<polygon points="977.3,161.7 977.3,161.7 977.3,161.7 977.3,161.7 977.3,323.3 977.3,323.3 977.3,323.3 977.3,323.3 977.3,485 
		1023.4,485 1023.4,323.3 1023.4,323.3 1023.4,323.3 1023.4,323.3 1023.4,161.7 1023.4,161.7 1023.4,161.7 1023.4,161.7 1023.4,0 
		977.3,0 	"/>
	<path d="M1033.4,0v242.5c25.5,0,46.1-20.6,46.1-46.1V46.1C1079.5,20.6,1058.9,0,1033.4,0z"/>
	<polygon points="1089.5,161.7 1089.5,161.7 1089.5,161.7 1089.5,161.7 1089.5,323.3 1089.5,323.3 1089.5,323.3 1089.5,323.3 
		1089.5,485 1135.6,485 1135.6,323.3 1135.6,323.3 1135.6,323.3 1135.6,323.3 1135.6,161.7 1135.6,161.7 1135.6,161.7 1135.6,161.7 
		1135.6,0 1089.5,0 	"/>
	<rect x="1145.6" width="46.1" height="161.7"/>
	<polygon points="1201.7,161.7 1201.7,161.7 1201.7,161.7 1201.6,161.7 1201.6,323.3 1201.7,323.3 1201.7,323.3 1201.6,323.3 
		1201.6,485 1247.7,485 1247.7,376.5 1247.7,376.5 1247.7,161.7 1247.8,161.7 1247.8,0 1201.7,0 	"/>
	<polygon points="1257.8,161.7 1257.8,161.7 1257.8,161.7 1257.8,161.7 1257.8,323.3 1257.8,323.3 1257.8,323.3 1257.8,323.3 
		1257.8,485 1303.8,485 1303.8,323.3 1303.8,323.3 1303.8,323.3 1303.8,323.3 1303.8,161.7 1303.8,161.7 1303.8,161.7 1303.8,161.7 
		1303.8,0 1257.8,0 	"/>
	<polygon points="168.3,323.3 168.3,323.3 168.3,323.3 168.3,323.3 168.3,485 214.3,485 214.3,323.3 214.3,323.3 214.3,323.3 
		214.3,323.3 214.3,162 168.3,162 	"/>
	<path d="M280.4,207L280.4,207l0,0.7c0,0,0,0,0,0.1v115.6h0v0h0v115.6c0,25.5,20.6,46.1,46.1,46.1h0V323.3h0v0h0V161.7h0
		C301.3,161.7,280.8,181.9,280.4,207z"/>
	<path d="M703,161.7L703,161.7L703,161.7L703,161.7V46.1C703,20.6,682.4,0,656.9,0v161.7h0v0h0v161.7l0,0.6v52.5h0.1l0.3,108.6
		c25.5-0.1,46-20.9,45.8-46.3L703,323.3V161.7z"/>
	<path d="M713,207L713,207l0,0.7c0,0,0,0,0,0.1v115.6h0v0h0v115.6c0,25.5,20.6,46.1,46.1,46.1V323.3h0v0h0V161.7
		C733.9,161.7,713.4,181.9,713,207z"/>
	<rect x="488.7" y="323.3" width="46.1" height="161.7"/>
	<rect x="600.8" y="323.3" width="46.1" height="161.7"/>
	<rect x="881.3" y="323.3" width="46.1" height="161.7"/>
	<rect x="881.3" y="177.5" width="46.1" height="129.3"/>
	<path d="M1079.5,438.9V288.6c0-25.5-20.6-46.1-46.1-46.1V485C1058.9,485,1079.5,464.4,1079.5,438.9z"/>
	<rect x="1145.9" y="242.3" width="46.1" height="81.2"/>
</g>
</svg>
